<svg width="28" height="28" viewBox="0 0 28 28" fill="none" xmlns="http://www.w3.org/2000/svg">
<path d="M19.5779 25.4672C21.6169 25.4672 22.9649 24.9162 24.1599 23.5802C24.2539 23.4867 24.3359 23.3812 24.4299 23.2872C25.1329 22.5022 25.4609 21.7287 25.4609 20.9907C25.4609 20.1467 24.9689 19.3617 23.9259 18.6347L20.5159 16.2677C19.4609 15.5412 18.2304 15.4592 17.2459 16.4317L16.3439 17.3342C16.0739 17.6037 15.8399 17.6157 15.5704 17.4512C14.9494 17.0527 13.6719 15.9397 12.8044 15.0727C11.8904 14.1702 10.9999 13.1627 10.5429 12.4242C10.3789 12.1542 10.4024 11.9317 10.6719 11.6622L11.5624 10.7597C12.5469 9.77573 12.4649 8.53323 11.7384 7.49073L9.35944 4.08073C8.64444 3.03723 7.85944 2.55673 7.01544 2.54523C6.27744 2.53323 5.50394 2.87323 4.71894 3.57623C4.61344 3.67023 4.51944 3.75223 4.41394 3.83423C3.08994 5.02923 2.53894 6.37723 2.53894 8.40423C2.53894 11.7562 4.60144 15.8342 8.38694 19.6192C12.1484 23.3812 16.2384 25.4672 19.5779 25.4672ZM19.5899 23.6622C16.6014 23.7207 12.7699 21.4242 9.73444 18.4007C6.67594 15.3537 4.27344 11.3927 4.33194 8.40473C4.35544 7.11523 4.80094 6.00223 5.72694 5.20523C5.79694 5.13523 5.86694 5.07623 5.94894 5.01773C6.28894 4.71273 6.67594 4.54923 7.00394 4.54923C7.35544 4.54923 7.65994 4.67773 7.88294 5.02923L10.1564 8.43923C10.4024 8.80273 10.4259 9.21323 10.0624 9.57623L9.03144 10.6077C8.21094 11.4162 8.28144 12.4007 8.86744 13.1857C9.53494 14.0882 10.6954 15.4007 11.5859 16.2912C12.4884 17.1937 13.9059 18.4592 14.8084 19.1387C15.5934 19.7247 16.5899 19.7837 17.3984 18.9747L18.4294 17.9437C18.7929 17.5802 19.1914 17.6037 19.5544 17.8382L22.9644 20.1117C23.3164 20.3457 23.4569 20.6387 23.4569 20.9907C23.4569 21.3307 23.2929 21.7057 22.9769 22.0567C22.9218 22.1338 22.8631 22.2082 22.8009 22.2797C21.9924 23.1937 20.8789 23.6387 19.5899 23.6622Z" fill="black"/>
</svg>
