<svg width="40" height="40" viewBox="0 0 40 40" fill="none" xmlns="http://www.w3.org/2000/svg">
<path d="M19.9388 0C8.92714 0 0 8.9269 0 19.9386C0 30.9507 8.92714 39.8769 19.9388 39.8769C30.9517 39.8769 39.8779 30.9507 39.8779 19.9386C39.8779 8.92762 30.9517 0.000952376 19.9386 0.000952376L19.9388 0ZM29.0826 28.7571C28.7255 29.3429 27.9588 29.5286 27.3731 29.1691C22.6917 26.3095 16.7983 25.6619 9.85786 27.2476C9.18905 27.4 8.52238 26.981 8.37 26.3119C8.21691 25.6429 8.63429 24.9762 9.30476 24.8238C16.9 23.0879 23.415 23.8357 28.6707 27.0476C29.2564 27.4071 29.4421 28.1714 29.0826 28.7571ZM31.5231 23.3274C31.0731 24.0595 30.116 24.2905 29.385 23.8405C24.0255 20.5455 15.8557 19.5914 9.51643 21.5157C8.69429 21.764 7.82595 21.3007 7.57643 20.48C7.32881 19.6579 7.79238 18.7912 8.6131 18.5412C15.8543 16.344 24.8564 17.4083 31.0112 21.1905C31.7421 21.6405 31.9731 22.5974 31.5231 23.3274ZM31.7326 17.674C25.3064 13.8571 14.704 13.5062 8.56857 15.3683C7.58333 15.6671 6.54143 15.111 6.24286 14.1257C5.94429 13.14 6.5 12.0988 7.48595 11.7993C14.529 9.66119 26.2374 10.0743 33.636 14.4664C34.524 14.9924 34.8145 16.1369 34.2883 17.0219C33.7645 17.9081 32.6169 18.2002 31.7336 17.674H31.7326Z" fill="black"/>
</svg>
