<svg width="45" height="45" viewBox="0 0 45 45" fill="none" xmlns="http://www.w3.org/2000/svg">
<path d="M44.5518 13.5C44.5518 13.5 44.1123 10.3975 42.7588 9.03516C41.0449 7.24219 39.1289 7.2334 38.25 7.12793C31.957 6.6709 22.5088 6.6709 22.5088 6.6709H22.4912C22.4912 6.6709 13.043 6.6709 6.75 7.12793C5.87109 7.2334 3.95508 7.24219 2.24121 9.03516C0.887695 10.3975 0.457031 13.5 0.457031 13.5C0.457031 13.5 0 17.1475 0 20.7861V24.1963C0 27.835 0.448242 31.4824 0.448242 31.4824C0.448242 31.4824 0.887695 34.585 2.23242 35.9473C3.94629 37.7402 6.19629 37.6787 7.19824 37.8721C10.8018 38.2148 22.5 38.3203 22.5 38.3203C22.5 38.3203 31.957 38.3027 38.25 37.8545C39.1289 37.749 41.0449 37.7402 42.7588 35.9473C44.1123 34.585 44.5518 31.4824 44.5518 31.4824C44.5518 31.4824 45 27.8437 45 24.1963V20.7861C45 17.1475 44.5518 13.5 44.5518 13.5ZM17.8506 28.3359V15.6885L30.0059 22.0342L17.8506 28.3359Z" fill="black"/>
</svg>
